<svg width="27" height="28" viewBox="0 0 27 28" fill="none" xmlns="http://www.w3.org/2000/svg">
<path d="M7.86897 27.4906C9.1107 27.4906 10.1173 26.484 10.1173 25.2423C10.1173 24.0005 9.1107 22.9939 7.86897 22.9939C6.62723 22.9939 5.62061 24.0005 5.62061 25.2423C5.62061 26.484 6.62723 27.4906 7.86897 27.4906Z" fill="white"/>
<path d="M19.1112 27.4906C20.3529 27.4906 21.3595 26.484 21.3595 25.2423C21.3595 24.0005 20.3529 22.9939 19.1112 22.9939C17.8694 22.9939 16.8628 24.0005 16.8628 25.2423C16.8628 26.484 17.8694 27.4906 19.1112 27.4906Z" fill="white"/>
<path d="M25.8566 3.88207H23.6082V1.6337C23.6082 1.33555 23.4898 1.04961 23.2789 0.838787C23.0681 0.627962 22.7822 0.509521 22.484 0.509521C22.1859 0.509521 21.8999 0.627962 21.6891 0.838787C21.4783 1.04961 21.3598 1.33555 21.3598 1.6337V3.88207H19.1115C18.8133 3.88207 18.5274 4.00051 18.3166 4.21134C18.1057 4.42216 17.9873 4.7081 17.9873 5.00625C17.9873 5.30441 18.1057 5.59035 18.3166 5.80117C18.5274 6.012 18.8133 6.13044 19.1115 6.13044H21.3598V8.3788C21.3598 8.67696 21.4783 8.9629 21.6891 9.17372C21.8999 9.38455 22.1859 9.50299 22.484 9.50299C22.7822 9.50299 23.0681 9.38455 23.2789 9.17372C23.4898 8.9629 23.6082 8.67696 23.6082 8.3788V6.13044H25.8566C26.1547 6.13044 26.4407 6.012 26.6515 5.80117C26.8623 5.59035 26.9808 5.30441 26.9808 5.00625C26.9808 4.7081 26.8623 4.42216 26.6515 4.21134C26.4407 4.00051 26.1547 3.88207 25.8566 3.88207Z" fill="white"/>
<path d="M24.4746 11.4433C24.3292 11.4161 24.1799 11.418 24.0353 11.449C23.8907 11.4799 23.7537 11.5392 23.6322 11.6235C23.5107 11.7078 23.4071 11.8154 23.3275 11.94C23.2478 12.0646 23.1937 12.2037 23.1683 12.3494C23.0281 13.1275 22.619 13.8316 22.0124 14.3388C21.4058 14.8459 20.6403 15.1238 19.8497 15.1239H6.09082L5.03409 6.13044H14.6144C14.9125 6.13044 15.1985 6.012 15.4093 5.80117C15.6201 5.59035 15.7386 5.30441 15.7386 5.00625C15.7386 4.7081 15.6201 4.42216 15.4093 4.21134C15.1985 4.00051 14.9125 3.88207 14.6144 3.88207H4.76878L4.72157 3.48636C4.62469 2.66638 4.23037 1.91043 3.61333 1.36177C2.9963 0.813112 2.19944 0.509873 1.37375 0.509521L1.12418 0.509521C0.826031 0.509521 0.540091 0.627962 0.329266 0.838787C0.11844 1.04961 0 1.33555 0 1.6337C0 1.93186 0.11844 2.2178 0.329266 2.42862C0.540091 2.63945 0.826031 2.75789 1.12418 2.75789H1.37375C1.6491 2.75792 1.91486 2.85901 2.12063 3.04199C2.32639 3.22496 2.45785 3.47708 2.49007 3.75054L4.03694 16.9035C4.19753 18.2714 4.85476 19.5327 5.88387 20.448C6.91298 21.3634 8.24235 21.869 9.61963 21.869H21.3595C21.6576 21.869 21.9436 21.7506 22.1544 21.5397C22.3652 21.3289 22.4837 21.043 22.4837 20.7448C22.4837 20.4467 22.3652 20.1607 22.1544 19.9499C21.9436 19.7391 21.6576 19.6206 21.3595 19.6206H9.61963C8.9221 19.6208 8.24168 19.4046 7.67211 19.0019C7.10254 18.5993 6.67183 18.0299 6.43932 17.3723H19.8497C21.1674 17.3724 22.4433 16.9096 23.4544 16.0646C24.4656 15.2197 25.1478 14.0464 25.3818 12.7496C25.4081 12.6043 25.4054 12.4552 25.374 12.3109C25.3427 12.1665 25.2831 12.0298 25.1989 11.9085C25.1146 11.7872 25.0073 11.6837 24.883 11.6038C24.7587 11.524 24.62 11.4695 24.4746 11.4433Z" fill="white"/>
</svg>
